<?xml version="1.0" encoding="utf-8"?>
<svg xmlns="http://www.w3.org/2000/svg" xmlns:xlink="http://www.w3.org/1999/xlink" width="600" height="400" viewBox="0 0 2400 1600">
<defs>
  <clipPath id="clip7800">
    <rect x="0" y="0" width="2400" height="1600"/>
  </clipPath>
</defs>
<path clip-path="url(#clip7800)" d="
M0 1600 L2400 1600 L2400 0 L0 0  Z
  " fill="#ffffff" fill-rule="evenodd" fill-opacity="1"/>
<defs>
  <clipPath id="clip7801">
    <rect x="480" y="0" width="1681" height="1600"/>
  </clipPath>
</defs>
<path clip-path="url(#clip7800)" d="
M148.334 1486.45 L2352.76 1486.45 L2352.76 47.2441 L148.334 47.2441  Z
  " fill="#ffffff" fill-rule="evenodd" fill-opacity="1"/>
<defs>
  <clipPath id="clip7802">
    <rect x="148" y="47" width="2205" height="1440"/>
  </clipPath>
</defs>
<polyline clip-path="url(#clip7802)" style="stroke:#000000; stroke-width:2; stroke-opacity:0.1; fill:none" points="
  210.724,1486.45 210.724,47.2441 
  "/>
<polyline clip-path="url(#clip7802)" style="stroke:#000000; stroke-width:2; stroke-opacity:0.1; fill:none" points="
  730.634,1486.45 730.634,47.2441 
  "/>
<polyline clip-path="url(#clip7802)" style="stroke:#000000; stroke-width:2; stroke-opacity:0.1; fill:none" points="
  1250.55,1486.45 1250.55,47.2441 
  "/>
<polyline clip-path="url(#clip7802)" style="stroke:#000000; stroke-width:2; stroke-opacity:0.1; fill:none" points="
  1770.46,1486.45 1770.46,47.2441 
  "/>
<polyline clip-path="url(#clip7802)" style="stroke:#000000; stroke-width:2; stroke-opacity:0.1; fill:none" points="
  2290.37,1486.45 2290.37,47.2441 
  "/>
<polyline clip-path="url(#clip7802)" style="stroke:#000000; stroke-width:2; stroke-opacity:0.1; fill:none" points="
  148.334,1229.9 2352.76,1229.9 
  "/>
<polyline clip-path="url(#clip7802)" style="stroke:#000000; stroke-width:2; stroke-opacity:0.1; fill:none" points="
  148.334,942.134 2352.76,942.134 
  "/>
<polyline clip-path="url(#clip7802)" style="stroke:#000000; stroke-width:2; stroke-opacity:0.1; fill:none" points="
  148.334,654.374 2352.76,654.374 
  "/>
<polyline clip-path="url(#clip7802)" style="stroke:#000000; stroke-width:2; stroke-opacity:0.1; fill:none" points="
  148.334,366.613 2352.76,366.613 
  "/>
<polyline clip-path="url(#clip7802)" style="stroke:#000000; stroke-width:2; stroke-opacity:0.1; fill:none" points="
  148.334,78.8524 2352.76,78.8524 
  "/>
<polyline clip-path="url(#clip7800)" style="stroke:#000000; stroke-width:4; stroke-opacity:1; fill:none" points="
  148.334,1486.45 2352.76,1486.45 
  "/>
<polyline clip-path="url(#clip7800)" style="stroke:#000000; stroke-width:4; stroke-opacity:1; fill:none" points="
  148.334,1486.45 148.334,47.2441 
  "/>
<polyline clip-path="url(#clip7800)" style="stroke:#000000; stroke-width:4; stroke-opacity:1; fill:none" points="
  210.724,1486.45 210.724,1469.18 
  "/>
<polyline clip-path="url(#clip7800)" style="stroke:#000000; stroke-width:4; stroke-opacity:1; fill:none" points="
  730.634,1486.45 730.634,1469.18 
  "/>
<polyline clip-path="url(#clip7800)" style="stroke:#000000; stroke-width:4; stroke-opacity:1; fill:none" points="
  1250.55,1486.45 1250.55,1469.18 
  "/>
<polyline clip-path="url(#clip7800)" style="stroke:#000000; stroke-width:4; stroke-opacity:1; fill:none" points="
  1770.46,1486.45 1770.46,1469.18 
  "/>
<polyline clip-path="url(#clip7800)" style="stroke:#000000; stroke-width:4; stroke-opacity:1; fill:none" points="
  2290.37,1486.45 2290.37,1469.18 
  "/>
<polyline clip-path="url(#clip7800)" style="stroke:#000000; stroke-width:4; stroke-opacity:1; fill:none" points="
  148.334,1229.9 174.787,1229.9 
  "/>
<polyline clip-path="url(#clip7800)" style="stroke:#000000; stroke-width:4; stroke-opacity:1; fill:none" points="
  148.334,942.134 174.787,942.134 
  "/>
<polyline clip-path="url(#clip7800)" style="stroke:#000000; stroke-width:4; stroke-opacity:1; fill:none" points="
  148.334,654.374 174.787,654.374 
  "/>
<polyline clip-path="url(#clip7800)" style="stroke:#000000; stroke-width:4; stroke-opacity:1; fill:none" points="
  148.334,366.613 174.787,366.613 
  "/>
<polyline clip-path="url(#clip7800)" style="stroke:#000000; stroke-width:4; stroke-opacity:1; fill:none" points="
  148.334,78.8524 174.787,78.8524 
  "/>
<path clip-path="url(#clip7800)" d="M 0 0 M210.724 1508.44 Q207.113 1508.44 205.284 1512 Q203.478 1515.55 203.478 1522.67 Q203.478 1529.78 205.284 1533.35 Q207.113 1536.89 210.724 1536.89 Q214.358 1536.89 216.163 1533.35 Q217.992 1529.78 217.992 1522.67 Q217.992 1515.55 216.163 1512 Q214.358 1508.44 210.724 1508.44 M210.724 1504.73 Q216.534 1504.73 219.589 1509.34 Q222.668 1513.92 222.668 1522.67 Q222.668 1531.4 219.589 1536.01 Q216.534 1540.59 210.724 1540.59 Q204.914 1540.59 201.835 1536.01 Q198.779 1531.4 198.779 1522.67 Q198.779 1513.92 201.835 1509.34 Q204.914 1504.73 210.724 1504.73 Z" fill="#000000" fill-rule="evenodd" fill-opacity="1" /><path clip-path="url(#clip7800)" d="M 0 0 M725.287 1535.98 L741.607 1535.98 L741.607 1539.92 L719.662 1539.92 L719.662 1535.98 Q722.324 1533.23 726.908 1528.6 Q731.514 1523.95 732.695 1522.61 Q734.94 1520.08 735.82 1518.35 Q736.722 1516.59 736.722 1514.9 Q736.722 1512.14 734.778 1510.41 Q732.857 1508.67 729.755 1508.67 Q727.556 1508.67 725.102 1509.43 Q722.671 1510.2 719.894 1511.75 L719.894 1507.03 Q722.718 1505.89 725.171 1505.31 Q727.625 1504.73 729.662 1504.73 Q735.033 1504.73 738.227 1507.42 Q741.421 1510.11 741.421 1514.6 Q741.421 1516.73 740.611 1518.65 Q739.824 1520.54 737.718 1523.14 Q737.139 1523.81 734.037 1527.03 Q730.935 1530.22 725.287 1535.98 Z" fill="#000000" fill-rule="evenodd" fill-opacity="1" /><path clip-path="url(#clip7800)" d="M 0 0 M1253.55 1509.43 L1241.75 1527.88 L1253.55 1527.88 L1253.55 1509.43 M1252.33 1505.36 L1258.21 1505.36 L1258.21 1527.88 L1263.14 1527.88 L1263.14 1531.77 L1258.21 1531.77 L1258.21 1539.92 L1253.55 1539.92 L1253.55 1531.77 L1237.95 1531.77 L1237.95 1527.26 L1252.33 1505.36 Z" fill="#000000" fill-rule="evenodd" fill-opacity="1" /><path clip-path="url(#clip7800)" d="M 0 0 M1770.86 1520.78 Q1767.71 1520.78 1765.86 1522.93 Q1764.03 1525.08 1764.03 1528.83 Q1764.03 1532.56 1765.86 1534.73 Q1767.71 1536.89 1770.86 1536.89 Q1774.01 1536.89 1775.84 1534.73 Q1777.69 1532.56 1777.69 1528.83 Q1777.69 1525.08 1775.84 1522.93 Q1774.01 1520.78 1770.86 1520.78 M1780.14 1506.12 L1780.14 1510.38 Q1778.38 1509.55 1776.58 1509.11 Q1774.8 1508.67 1773.04 1508.67 Q1768.41 1508.67 1765.95 1511.8 Q1763.52 1514.92 1763.18 1521.24 Q1764.54 1519.23 1766.6 1518.16 Q1768.66 1517.07 1771.14 1517.07 Q1776.35 1517.07 1779.36 1520.24 Q1782.39 1523.39 1782.39 1528.83 Q1782.39 1534.16 1779.24 1537.37 Q1776.09 1540.59 1770.86 1540.59 Q1764.87 1540.59 1761.69 1536.01 Q1758.52 1531.4 1758.52 1522.67 Q1758.52 1514.48 1762.41 1509.62 Q1766.3 1504.73 1772.85 1504.73 Q1774.61 1504.73 1776.39 1505.08 Q1778.2 1505.43 1780.14 1506.12 Z" fill="#000000" fill-rule="evenodd" fill-opacity="1" /><path clip-path="url(#clip7800)" d="M 0 0 M2290.37 1523.51 Q2287.03 1523.51 2285.11 1525.29 Q2283.21 1527.07 2283.21 1530.2 Q2283.21 1533.32 2285.11 1535.11 Q2287.03 1536.89 2290.37 1536.89 Q2293.7 1536.89 2295.62 1535.11 Q2297.54 1533.3 2297.54 1530.2 Q2297.54 1527.07 2295.62 1525.29 Q2293.72 1523.51 2290.37 1523.51 M2285.69 1521.52 Q2282.68 1520.78 2280.99 1518.72 Q2279.33 1516.66 2279.33 1513.69 Q2279.33 1509.55 2282.26 1507.14 Q2285.23 1504.73 2290.37 1504.73 Q2295.53 1504.73 2298.47 1507.14 Q2301.41 1509.55 2301.41 1513.69 Q2301.41 1516.66 2299.72 1518.72 Q2298.05 1520.78 2295.07 1521.52 Q2298.45 1522.3 2300.32 1524.6 Q2302.22 1526.89 2302.22 1530.2 Q2302.22 1535.22 2299.14 1537.91 Q2296.08 1540.59 2290.37 1540.59 Q2284.65 1540.59 2281.57 1537.91 Q2278.51 1535.22 2278.51 1530.2 Q2278.51 1526.89 2280.41 1524.6 Q2282.31 1522.3 2285.69 1521.52 M2283.98 1514.13 Q2283.98 1516.82 2285.64 1518.32 Q2287.33 1519.83 2290.37 1519.83 Q2293.38 1519.83 2295.07 1518.32 Q2296.78 1516.82 2296.78 1514.13 Q2296.78 1511.45 2295.07 1509.94 Q2293.38 1508.44 2290.37 1508.44 Q2287.33 1508.44 2285.64 1509.94 Q2283.98 1511.45 2283.98 1514.13 Z" fill="#000000" fill-rule="evenodd" fill-opacity="1" /><path clip-path="url(#clip7800)" d="M 0 0 M77.0198 1215.69 Q73.4087 1215.69 71.58 1219.26 Q69.7745 1222.8 69.7745 1229.93 Q69.7745 1237.04 71.58 1240.6 Q73.4087 1244.14 77.0198 1244.14 Q80.6541 1244.14 82.4596 1240.6 Q84.2883 1237.04 84.2883 1229.93 Q84.2883 1222.8 82.4596 1219.26 Q80.6541 1215.69 77.0198 1215.69 M77.0198 1211.99 Q82.83 1211.99 85.8855 1216.6 Q88.9642 1221.18 88.9642 1229.93 Q88.9642 1238.66 85.8855 1243.26 Q82.83 1247.85 77.0198 1247.85 Q71.2097 1247.85 68.131 1243.26 Q65.0754 1238.66 65.0754 1229.93 Q65.0754 1221.18 68.131 1216.6 Q71.2097 1211.99 77.0198 1211.99 Z" fill="#000000" fill-rule="evenodd" fill-opacity="1" /><path clip-path="url(#clip7800)" d="M 0 0 M94.0336 1241.3 L98.9179 1241.3 L98.9179 1247.18 L94.0336 1247.18 L94.0336 1241.3 Z" fill="#000000" fill-rule="evenodd" fill-opacity="1" /><path clip-path="url(#clip7800)" d="M 0 0 M108.015 1243.24 L124.334 1243.24 L124.334 1247.18 L102.39 1247.18 L102.39 1243.24 Q105.052 1240.49 109.635 1235.86 Q114.242 1231.2 115.422 1229.86 Q117.668 1227.34 118.547 1225.6 Q119.45 1223.84 119.45 1222.15 Q119.45 1219.4 117.506 1217.66 Q115.584 1215.93 112.483 1215.93 Q110.284 1215.93 107.83 1216.69 Q105.399 1217.45 102.622 1219 L102.622 1214.28 Q105.446 1213.15 107.899 1212.57 Q110.353 1211.99 112.39 1211.99 Q117.76 1211.99 120.955 1214.68 Q124.149 1217.36 124.149 1221.85 Q124.149 1223.98 123.339 1225.9 Q122.552 1227.8 120.446 1230.39 Q119.867 1231.06 116.765 1234.28 Q113.663 1237.48 108.015 1243.24 Z" fill="#000000" fill-rule="evenodd" fill-opacity="1" /><path clip-path="url(#clip7800)" d="M 0 0 M74.9365 927.933 Q71.3254 927.933 69.4967 931.498 Q67.6912 935.04 67.6912 942.169 Q67.6912 949.276 69.4967 952.84 Q71.3254 956.382 74.9365 956.382 Q78.5707 956.382 80.3763 952.84 Q82.205 949.276 82.205 942.169 Q82.205 935.04 80.3763 931.498 Q78.5707 927.933 74.9365 927.933 M74.9365 924.229 Q80.7467 924.229 83.8022 928.836 Q86.8809 933.419 86.8809 942.169 Q86.8809 950.896 83.8022 955.502 Q80.7467 960.086 74.9365 960.086 Q69.1264 960.086 66.0477 955.502 Q62.9921 950.896 62.9921 942.169 Q62.9921 933.419 66.0477 928.836 Q69.1264 924.229 74.9365 924.229 Z" fill="#000000" fill-rule="evenodd" fill-opacity="1" /><path clip-path="url(#clip7800)" d="M 0 0 M91.9503 953.535 L96.8345 953.535 L96.8345 959.414 L91.9503 959.414 L91.9503 953.535 Z" fill="#000000" fill-rule="evenodd" fill-opacity="1" /><path clip-path="url(#clip7800)" d="M 0 0 M114.751 928.929 L102.946 947.377 L114.751 947.377 L114.751 928.929 M113.524 924.854 L119.404 924.854 L119.404 947.377 L124.334 947.377 L124.334 951.266 L119.404 951.266 L119.404 959.414 L114.751 959.414 L114.751 951.266 L99.1493 951.266 L99.1493 946.752 L113.524 924.854 Z" fill="#000000" fill-rule="evenodd" fill-opacity="1" /><path clip-path="url(#clip7800)" d="M 0 0 M75.2606 640.172 Q71.6495 640.172 69.8208 643.737 Q68.0152 647.279 68.0152 654.408 Q68.0152 661.515 69.8208 665.08 Q71.6495 668.621 75.2606 668.621 Q78.8948 668.621 80.7004 665.08 Q82.5291 661.515 82.5291 654.408 Q82.5291 647.279 80.7004 643.737 Q78.8948 640.172 75.2606 640.172 M75.2606 636.469 Q81.0707 636.469 84.1263 641.075 Q87.205 645.659 87.205 654.408 Q87.205 663.135 84.1263 667.742 Q81.0707 672.325 75.2606 672.325 Q69.4504 672.325 66.3717 667.742 Q63.3162 663.135 63.3162 654.408 Q63.3162 645.659 66.3717 641.075 Q69.4504 636.469 75.2606 636.469 Z" fill="#000000" fill-rule="evenodd" fill-opacity="1" /><path clip-path="url(#clip7800)" d="M 0 0 M92.2744 665.774 L97.1586 665.774 L97.1586 671.654 L92.2744 671.654 L92.2744 665.774 Z" fill="#000000" fill-rule="evenodd" fill-opacity="1" /><path clip-path="url(#clip7800)" d="M 0 0 M112.807 652.51 Q109.659 652.51 107.807 654.663 Q105.978 656.816 105.978 660.566 Q105.978 664.293 107.807 666.469 Q109.659 668.621 112.807 668.621 Q115.955 668.621 117.783 666.469 Q119.635 664.293 119.635 660.566 Q119.635 656.816 117.783 654.663 Q115.955 652.51 112.807 652.51 M122.089 637.858 L122.089 642.117 Q120.33 641.284 118.524 640.844 Q116.742 640.404 114.983 640.404 Q110.353 640.404 107.899 643.529 Q105.469 646.654 105.122 652.973 Q106.487 650.959 108.547 649.895 Q110.608 648.807 113.084 648.807 Q118.293 648.807 121.302 651.978 Q124.334 655.126 124.334 660.566 Q124.334 665.89 121.186 669.107 Q118.038 672.325 112.807 672.325 Q106.811 672.325 103.64 667.742 Q100.469 663.135 100.469 654.408 Q100.469 646.214 104.358 641.353 Q108.247 636.469 114.797 636.469 Q116.557 636.469 118.339 636.816 Q120.145 637.163 122.089 637.858 Z" fill="#000000" fill-rule="evenodd" fill-opacity="1" /><path clip-path="url(#clip7800)" d="M 0 0 M75.5152 352.412 Q71.9041 352.412 70.0754 355.977 Q68.2699 359.518 68.2699 366.648 Q68.2699 373.754 70.0754 377.319 Q71.9041 380.861 75.5152 380.861 Q79.1494 380.861 80.955 377.319 Q82.7837 373.754 82.7837 366.648 Q82.7837 359.518 80.955 355.977 Q79.1494 352.412 75.5152 352.412 M75.5152 348.708 Q81.3254 348.708 84.3809 353.315 Q87.4596 357.898 87.4596 366.648 Q87.4596 375.375 84.3809 379.981 Q81.3254 384.564 75.5152 384.564 Q69.7051 384.564 66.6264 379.981 Q63.5708 375.375 63.5708 366.648 Q63.5708 357.898 66.6264 353.315 Q69.7051 348.708 75.5152 348.708 Z" fill="#000000" fill-rule="evenodd" fill-opacity="1" /><path clip-path="url(#clip7800)" d="M 0 0 M92.529 378.013 L97.4132 378.013 L97.4132 383.893 L92.529 383.893 L92.529 378.013 Z" fill="#000000" fill-rule="evenodd" fill-opacity="1" /><path clip-path="url(#clip7800)" d="M 0 0 M112.483 367.481 Q109.149 367.481 107.228 369.264 Q105.33 371.046 105.33 374.171 Q105.33 377.296 107.228 379.078 Q109.149 380.861 112.483 380.861 Q115.816 380.861 117.737 379.078 Q119.658 377.273 119.658 374.171 Q119.658 371.046 117.737 369.264 Q115.839 367.481 112.483 367.481 M107.807 365.49 Q104.797 364.75 103.108 362.689 Q101.441 360.629 101.441 357.666 Q101.441 353.523 104.381 351.115 Q107.344 348.708 112.483 348.708 Q117.645 348.708 120.584 351.115 Q123.524 353.523 123.524 357.666 Q123.524 360.629 121.834 362.689 Q120.168 364.75 117.182 365.49 Q120.561 366.277 122.436 368.569 Q124.334 370.861 124.334 374.171 Q124.334 379.194 121.256 381.879 Q118.2 384.564 112.483 384.564 Q106.765 384.564 103.686 381.879 Q100.631 379.194 100.631 374.171 Q100.631 370.861 102.529 368.569 Q104.427 366.277 107.807 365.49 M106.094 358.106 Q106.094 360.791 107.76 362.296 Q109.45 363.801 112.483 363.801 Q115.492 363.801 117.182 362.296 Q118.895 360.791 118.895 358.106 Q118.895 355.421 117.182 353.916 Q115.492 352.412 112.483 352.412 Q109.45 352.412 107.76 353.916 Q106.094 355.421 106.094 358.106 Z" fill="#000000" fill-rule="evenodd" fill-opacity="1" /><path clip-path="url(#clip7800)" d="M 0 0 M67.4597 92.1972 L75.0985 92.1972 L75.0985 65.8316 L66.7884 67.4982 L66.7884 63.239 L75.0522 61.5724 L79.7281 61.5724 L79.7281 92.1972 L87.367 92.1972 L87.367 96.1324 L67.4597 96.1324 L67.4597 92.1972 Z" fill="#000000" fill-rule="evenodd" fill-opacity="1" /><path clip-path="url(#clip7800)" d="M 0 0 M92.4364 90.2528 L97.3206 90.2528 L97.3206 96.1324 L92.4364 96.1324 L92.4364 90.2528 Z" fill="#000000" fill-rule="evenodd" fill-opacity="1" /><path clip-path="url(#clip7800)" d="M 0 0 M112.39 64.651 Q108.779 64.651 106.95 68.2158 Q105.145 71.7575 105.145 78.8871 Q105.145 85.9935 106.95 89.5583 Q108.779 93.1 112.39 93.1 Q116.024 93.1 117.83 89.5583 Q119.658 85.9935 119.658 78.8871 Q119.658 71.7575 117.83 68.2158 Q116.024 64.651 112.39 64.651 M112.39 60.9474 Q118.2 60.9474 121.256 65.5538 Q124.334 70.1371 124.334 78.8871 Q124.334 87.6139 121.256 92.2203 Q118.2 96.8036 112.39 96.8036 Q106.58 96.8036 103.501 92.2203 Q100.446 87.6139 100.446 78.8871 Q100.446 70.1371 103.501 65.5538 Q106.58 60.9474 112.39 60.9474 Z" fill="#000000" fill-rule="evenodd" fill-opacity="1" /><polyline clip-path="url(#clip7802)" style="stroke:#009af9; stroke-width:4; stroke-opacity:1; fill:none" points="
  210.724,1445.72 237.091,1438.46 305.188,1416.41 398.845,1376.8 513.383,1310.06 654.706,1193.86 824.594,1002.21 1038.28,712.69 1290.29,409.734 1543.29,224.753 
  1840.86,128.776 2114.2,96.71 2290.37,87.9763 
  "/>
</svg>
